<svg id="Layer_1" data-name="Layer 1" xmlns="http://www.w3.org/2000/svg" viewBox="0 0 1758.74 1760.04"><defs><style>.cls-1{fill:#c10505;}.cls-2{fill:#fdfdfd;}.cls-3{fill:#010101;}</style></defs><title>video</title><path class="cls-1" d="M0,1572.23v-1383c3.42-8.58,3.57-17.87,5.86-26.72C27,81.1,77.86,29.09,159,6.78,169,4,179.47,3.7,189.2,0H1567.82c1,2.08,2.95,1.25,4.5,1.48,24,3.48,47.67,8.87,69.22,20.29,76,40.34,116.46,104.19,116.6,189.94q1.11,668.76.15,1337.53c-0.06,72.62-29.92,131.45-89.39,174-33.83,24.21-71.8,36.73-113.72,36.73q-676.83-.06-1353.67.06a154.61,154.61,0,0,1-38.41-4.44Q40,1724.37,6.7,1601.82C4.06,1592.05,2.21,1582.09,0,1572.23Zm85.24,118.48c0,1.69.7,1.46,1.61,0.54,7.84,7.29,15.33,14.89,24.65,20.51,29.76,17.93,61.91,27.59,96.63,27.6q670.1,0.14,1340.19.07c103.64,0.27,187.87-83.54,188.14-187.18q0-.51,0-1,0.13-333.22,0-666.43c0-13.93-.07-27.86-0.1-41.79,0.44-4-1.73-3.37-4.51-2.93-27.44,4.29-54.93,8.35-82.37,12.62-42.37,6.59-84.72,13.36-127.09,20-48.39,7.54-96.81,14.93-145.2,22.47-42.61,6.64-85.2,13.43-127.81,20.09-42.13,6.58-84.28,13-126.41,19.62s-84.23,13.34-126.36,19.9q-72.95,11.35-145.93,22.53c-42.61,6.63-85.2,13.43-127.81,20.08q-63.2,9.87-126.41,19.61-59.22,9.23-118.43,18.55L360.33,1054q-53.08,8.32-106.17,16.6-59.58,9.28-119.18,18.5c-29.37,4.57-58.79,8.92-88.07,14-7.77,1.34-9-.7-9-8q0.29-435.2.14-870.39a198.17,198.17,0,0,1,2.69-32C55.45,102.61,133.57,35.41,224.38,35.39q670.94-.13,1341.89,0c14.2,0,28.14,2.15,42,5.14,17.59,3.79,33.57,11.64,49.87,18.77a4.33,4.33,0,0,0,5,2.42c0,0.7,0,1.4,1,.7l-1-.65a5.47,5.47,0,0,0-4.15-3.19,78.11,78.11,0,0,0-6.22-5A189.08,189.08,0,0,0,1547,22.1q-665.76.1-1331.51,0.06a235.3,235.3,0,0,0-27,1.23c-44.73,5.15-82.94,24-113.88,56.2-35.38,36.68-52.7,81.22-52.7,132.51q0.1,668.69,0,1337.38c0,45.19,13.87,85.41,42.13,120.5,5.29,6.57,9.63,14.68,18.46,17.8H82.38c-0.17,1.18.39,1.67,1.53,1.62l-0.14-.13a1.38,1.38,0,0,0,1.57,1.65ZM880.81,708.85c10.26,20.82,20.6,40.69,29.88,61,5.32,11.67,9.59,12.24,21.19,7.94Q1079.7,723,1227.59,668.42c55.66-20.49,109-45.47,157.14-80.48,58.46-42.48,104.73-95.15,133.66-161.89,20.74-47.86,21.43-95-3.8-142.35-22.93-43-43.42-87.36-65-131.11-3.64-7.38-7.56-9.33-15.09-6.47-26.92,10.24-53.62,20.81-76.74,38.79-22.28,17.32-44.1,35-58.64,59.77-13.16,22.46-15.48,45.58-2.64,69s21.31,48.09,29,73.3a19.63,19.63,0,0,1,.71,9.28c-6.17,37.53-25,67.88-52.75,93.11s-59.92,43-94.61,56.07c-85.1,32.1-170.47,63.47-255.75,95.1-1,.37-2.2,1.2-3.51-0.42,1.1-5.24,1.73-10.87,3.49-16.12,6.4-19.08,6.17-38.42,2.94-57.93-5.55-33.53-17.59-64.94-32.46-95.25Q788.54,257,683.31,43.3c-3.11-6.33-8-7-13.23-5.24-49.8,17-94.62,41.77-127.92,84a134.93,134.93,0,0,0-16.21,25.2c-9.2,19.24-9.55,38,.17,57.6q84.51,170.48,168.27,341.33c8,16.2,15.53,32.55,20.57,50a69.31,69.31,0,0,1-1.54,45.07c-18.4,49.63-53.19,83.85-99,108.28-25.29,13.51-52.61,22-79.22,32.24C460.43,810.63,383.92,835.14,310.65,868c-18.07,8.1-34.19,18.72-49.51,30.89-17.52,13.91-33.24,29.54-44.76,49-16.18,27.28-18.43,55.58-6.1,84.91,3,7.23,6.75,9,14.39,6.72,1.87-.55,3.64-1.39,5.47-2.07C318,1005,405.87,972.75,493.58,940c58-21.69,116.91-41.07,173.65-66,67-29.47,128.17-67.72,178.57-121.67a423.48,423.48,0,0,0,35-43.43h0Zm-399.28,48c6.63,0.39,14.87-.72,23.13-1.65,31.9-3.58,61.34-13.65,87.13-33.23,9.85-7.48,18.48-16.2,23.59-27.59,6.13-13.65,9.29-27.41,2-42.18Q495.83,406.13,374.65,159.91c-4.11-8.34-7.53-9.84-16.22-6.74-16.79,6-33.26,12.76-48.82,21.53-33.22,18.74-62.23,42.38-83.2,74.62-15.38,23.64-17,47.89-4,74.11q100.51,202.2,199.63,405c7.65,15.6,19.63,23.59,35.89,26.82,7.25,1.44,14.55,1.66,23.6,1.58v0ZM1489.37,632.77a336,336,0,0,0-42,3.82A396.13,396.13,0,0,0,1374.76,656c-4.78,1.76-9.63,4.73-6.38,11.33,7.64,15.52,15.34,31,23.24,46.41,3.82,7.43,8.62,14.26,15.64,19.07,16.42,11.24,34.1,20,53.33,25.13,61.64,16.57,119.79,1.92,176.92-20.53,4.48-1.76,7.43-5.56,4.1-11.7-6.39-11.77-11.08-24.52-18.15-35.83-7.66-12.27-15.58-24.83-29-32.17-31.77-17.38-65.95-24.85-105.09-25v0Zm-361.6,207c-0.22,6.1,2.34,15,6.44,23.38,6.93,14.25,14.22,28.33,20.93,42.69,3,6.32,7.91,7.25,13.15,5.26,28-10.64,56.09-21.36,80.73-38.92,23.19-16.52,44.56-35,59.6-59.74,12.32-20.22,17.61-41.89,10.94-65.13-5.75-20-17.18-37.64-25.92-56.39-2-4.35-5.52-2.92-8.76-1.41-11.49,5.36-23,10.69-34.45,16.09-17.39,8.19-35.11,15.55-50.23,28.08-21.13,17.5-41.92,35.21-57.18,58.35-8.86,13.38-15.1,27.8-15.26,47.7v0Z" transform="translate(0 -0.03)"/><path class="cls-2" d="M1736.38,843c0,13.93.1,27.86,0.1,41.79v666.43c0.3,103.64-83.48,187.9-187.12,188.2h-1q-670.1,0-1340.19-.07c-34.72,0-66.87-9.66-96.63-27.6-9.32-5.62-16.81-13.22-24.65-20.51l-1.61-.54,0.13,0.17c0.4-1.43,0-2.07-1.57-1.65l0.14,0.13c0.47-1.47,0-2-1.53-1.62h0.13c0.91-1.84-.85-2.51-1.64-3.5-29.52-36.61-43-78.45-42.89-125.43,0.35-143.48.12-287,.15-430.43,0-6.8-2.27-16.07,1.21-19.75,3.87-4.09,13.11-3.21,20-4.3q86.8-13.6,173.62-27.13l183-28.56,174.35-27.19,183-28.55,174.35-27.21,173.7-27.06,174.35-27.22,173.63-27.06L1643,857.3Q1689.69,850.08,1736.38,843Zm-149.73,594.55c-4.2,4.84-9.84,8.49-16,11.41-15.29,7.28-31.67,9.84-48.36,10.38-83.05,2.66-166.11,5.07-249.16,7.86-5.87.2-6.77-1.67-6.91-6.79-0.73-25.65-1.91-51.28-2.74-76.93-1.54-47.53-14.74-89.51-50.56-123.77-57.49-55-127.31-61.23-189.83-28.06-77.51,41.12-117.5,120.85-95.45,212.14,15.09,62.47,73.2,121.29,150.83,122.79,26.41,0.51,52.78-.65,79.16-0.63,2.58,0,5.27-.81,8.28.81-11.51,23-27.46,40.73-53.1,47.89-14.61,4.08-29.58,2.94-44.44,3.23-11.05.22-21.94,1.22-32.35,5.21-33.32,12.79-45.32,39.92-49.13,72.72-0.78,6.74,1.14,9,8.19,8.91,32.75-.36,65.5-0.24,98.25-0.21,10,0,20.09-.47,29.86-2.7,73.06-16.72,116.86-62.91,134.82-134.73,1.16-4.62,2.34-6.37,7.32-6.48q131.92-3,263.83-6.47a262.45,262.45,0,0,0,38.62-3.57c31.31-5.46,57.45-20.81,81.23-41.14,46.17-39.47,71.9-88.4,71.2-150.17-0.45-39.1,0-78.21-.15-117.32,0-9.76-.16-19.62-1.53-29.26-9.56-67.22-50.66-110.59-109.82-137-39-17.39-81.46-16.62-122.17-4.39-57,17.12-98.51,53.81-126,106.7-22.28,42.8-24.54,87.5-12.58,133.06,7.11,27.09,19.4,52.19,40.45,71.84,4.8,4.48,10.32,8.2,15,12.77,8.47,8.21,17.56,15.5,28,21.06,32.26,17.17,67.25,20.8,103,20.81h52.24v0ZM263.92,1285.38c-2.4-1.26-3.67-1.91-4.92-2.59a116.45,116.45,0,0,0-128.67,10.7c-36.68,29.17-58,67.39-64.14,113.68-5.54,42,.84,82,26.26,117.05,18.16,25,39.34,46.8,71.79,53.05a171.56,171.56,0,0,0,34.18,3.36c48.11-.47,96.19-2,144.32-2.15,60.6-.2,121.2-2,181.79-3.35,5.41-.12,7.23,1,6.9,6.67-0.52,8.77,0,17.59-.2,26.38-0.13,5.18,1.52,7.56,7.15,7.42q30.42-.74,60.84-0.81c5.3,0,6.77-2.24,6.64-7.09-0.22-8.3.4-16.65-.2-24.92-0.51-7,1-9.89,8.86-9.42,10.7,0.64,21.49-.46,32.24-0.39,5.13,0,6.91-2,6.88-6.95q-0.18-36.29,0-72.58c0-5.07-1.94-6.91-7-6.65-11.71.59-23.46,0.54-35.17,1.19-4.4.24-5.9-.62-5.75-5.38,0.38-12-.16-24,0.18-35.92,1-34.18-9.25-64.89-28.12-93-22.81-34-53.57-56.16-94.89-60.57-35.41-3.78-70.72,2.48-106.09,3.54-2.46.07-3.34,1.38-3.16,3.83,1.33,18.9,3.69,37.36,16.29,52.9,10.56,13,23.63,20.15,40.57,19.52,6.84-.25,13.67-0.88,20.5-0.93,9.51-.07,19.4-0.67,28.29,2.61,25.15,9.28,42.3,26.41,49,53.11,4.64,18.57,2.26,37.43,3.21,56.16,0.29,5.71-1.68,6.68-6.87,6.82-46.9,1.24-93.8,2.75-140.7,4.24-17.25.55-34.49,1.25-52.12,1.89V1232.75c0-9-.89-9.69-9.65-9-16.33,1.21-32.65,2.79-49,3.35-7.69.26-9.37,3.62-9.26,10.34C264.07,1253,263.92,1268.63,263.92,1285.38Zm592.2,137.25h-0.65V1273.05c0-2.4-1.15-3.72-3.69-3.08-10.14,2.54-21,2.55-30.43,7.57-30.89,16.45-47.26,41.58-47,77.34,0.39,59.39.1,118.79,0.12,178.18a176.43,176.43,0,0,1-1.35,20.44c-4,34.09-38.51,74-77.82,69.07a39.18,39.18,0,0,0-9.52.13c-11.53,1.41-23.45-.73-34.59,4.52-29.56,13.94-44.17,37.06-44.25,69.74,0,6.48,2,8.37,8.42,8.31,31.28-.33,62.57-0.27,93.85-0.27,12.57,0,24.64-2.37,36.67-6,50.32-15.33,113.65-90.2,110.66-151.72C854.49,1505.8,856.12,1464.17,856.12,1422.63Zm675-411.83c0,7.57.08,15.14,0,22.71-0.06,3.54,1.13,4.89,4.81,4.05,11.14-2.55,22.7-3.24,33.25-8.29,24-11.5,44.28-26.75,53.72-52.95,7.41-20.59,4.19-42,4.73-63.17,0.09-3.61-2.39-5.1-6-4.59-19.27,2.75-37.79,7.5-53.36,20.09-26.11,21.14-41.06,47.37-37.1,82.15h-0.05Zm-1067.93,621h0c0,5.37-.15,10.74,0,16.11a60.5,60.5,0,0,0,11.8,34.78c14.09,19.07,32.9,29.14,56.7,30,3.77,0.13,4.71-1.42,4.66-4.66-0.21-13.9.57-27.82-1.26-41.68-4.29-32.45-33-59-65.3-58.88-5.32,0-6.93,1.86-6.72,6.8,0.35,5.76.16,11.62,0.16,17.48ZM212.67,1196.1c0,8.19.13,14,0,19.9-0.13,4.47,1.6,5.94,6.14,5.59,25.44-2,49-20.41,56.76-45,6-18.85,6.44-38.33,6.22-57.88,0-4.16-2.1-4.08-5.11-3.64a70.6,70.6,0,0,0-29.81,11.18C221.15,1143.54,210.92,1168.14,212.67,1196.1Zm-44.17,5.37c0.25-17.85-3.77-34.33-14-49.13-11.23-16.16-26.72-23.49-46.29-22.85-4.82.16-7.06,1.59-6.76,6.89a190.86,190.86,0,0,1,0,21.95c-0.71,12.28,2.51,23.65,7.21,34.7,9.65,22.65,29,34.26,53.5,32.73,4.71-.29,6.53-2.17,6.4-6.75-0.18-5.85-.05-11.7-0.05-17.55h0Z" transform="translate(0 -0.03)"/><path class="cls-2" d="M880.8,708.85a423.48,423.48,0,0,1-35,43.35c-50.4,53.94-111.58,92.19-178.57,121.67-56.73,25-115.64,44.35-173.65,66-87.71,32.79-175.62,65-263.44,97.52-1.83.68-3.61,1.52-5.47,2.07-7.64,2.25-11.35.51-14.39-6.72-12.32-29.33-10.08-57.63,6.1-84.91,11.52-19.42,27.24-35,44.76-49,15.31-12.16,31.44-22.78,49.51-30.89,73.31-32.88,149.79-57.43,224.63-86.25,26.61-10.25,53.93-18.73,79.22-32.24,45.76-24.44,80.55-58.65,99-108.28A69.31,69.31,0,0,0,715,596.1c-5-17.44-12.59-33.79-20.57-50Q610.41,375.4,526.2,204.77c-9.73-19.62-9.37-38.36-.17-57.6A134.93,134.93,0,0,1,542.24,122c33.3-42.23,78.12-67,127.92-84,5.2-1.78,10.12-1.09,13.23,5.24Q788.39,257,893.62,470.73c14.87,30.3,26.91,61.71,32.46,95.25,3.23,19.51,3.46,38.84-2.94,57.93-1.76,5.25-2.38,10.88-3.49,16.12,1.31,1.62,2.51.79,3.51,0.42,85.28-31.63,170.65-63,255.75-95.1,34.69-13.09,66.93-30.92,94.61-56.07s46.58-55.57,52.75-93.11a19.63,19.63,0,0,0-.71-9.28c-7.73-25.2-16.26-50.06-29-73.3s-10.53-46.49,2.64-69c14.54-24.81,36.35-42.44,58.64-59.77,23.12-18,49.82-28.54,76.74-38.79,7.53-2.87,11.45-.92,15.09,6.47,21.57,43.75,42.07,88.08,65,131.11,25.23,47.35,24.55,94.49,3.8,142.35-28.93,66.75-75.2,119.42-133.66,161.89-48.18,35-101.48,60-157.14,80.48q-148,54.6-295.75,109.5c-11.6,4.3-15.87,3.73-21.19-7.94C901.41,749.54,891.07,729.63,880.8,708.85Z" transform="translate(0 -0.03)"/><path class="cls-2" d="M481.53,756.83c-9,.08-16.35-0.14-23.6-1.58C441.66,752,429.69,744,422,728.43q-99.38-202.72-199.64-405c-13-26.22-11.38-50.46,4-74.11,21-32.24,50-55.88,83.2-74.62,15.56-8.77,32-15.54,48.82-21.53,8.69-3.1,12.11-1.6,16.22,6.74Q495.92,406.07,617.37,652.19c7.3,14.77,4.13,28.52-2,42.18-5.11,11.38-13.74,20.11-23.59,27.59-25.79,19.58-55.22,29.65-87.13,33.23C496.4,756.11,488.16,757.22,481.53,756.83Z" transform="translate(0 -0.03)"/><path class="cls-3" d="M1736.38,843L1643,857.32q-86.82,13.47-173.63,27.05l-173.63,27.06-174.36,27.2L947.78,965.71,773.43,992.92l-183,28.55L416,1048.63l-183,28.56q-86.81,13.55-173.62,27.13c-6.93,1.09-16.17.21-20,4.3-3.48,3.68-1.21,13-1.21,19.75,0,143.48.2,287-.15,430.43-0.11,47,13.37,88.82,42.89,125.43,0.8,1,2.56,1.66,1.64,3.5-8.83-3.12-13.17-11.23-18.46-17.8-28.33-35-42.22-75.3-42.22-120.45Q22,880.79,21.92,212.1c0-51.29,17.29-95.83,52.63-132.66,30.94-32.25,69.15-51,113.88-56.2a235.3,235.3,0,0,1,27-1.23Q881.19,22,1546.94,22A189.08,189.08,0,0,1,1652.7,53.43a77.66,77.66,0,0,1,6.22,5q-0.38.38-.78,0.72c-16.28-7.14-32.26-15-49.86-18.78-13.88-3-27.82-5.14-42-5.14H224.39c-90.81,0-168.93,67.22-183.64,157.35a198.17,198.17,0,0,0-2.69,32q0,435.2-.14,870.39c0,7.34,1.2,9.38,9,8,29.29-5.06,58.7-9.41,88.07-14q59.58-9.28,119.18-18.5,53.09-8.26,106.17-16.6,58.85-9.22,117.7-18.48,59.21-9.29,118.43-18.55,63.2-9.85,126.41-19.61c42.61-6.65,85.2-13.46,127.81-20.08q72.95-11.35,145.93-22.53c42.13-6.56,84.23-13.31,126.36-19.9s84.28-13,126.41-19.62c42.61-6.66,85.2-13.45,127.81-20.09,48.39-7.54,96.8-14.93,145.2-22.47,42.37-6.6,84.72-13.36,127.09-20,27.45-4.27,54.93-8.33,82.37-12.62C1734.65,839.63,1736.82,839,1736.38,843Z" transform="translate(0 -0.03)"/><path class="cls-2" d="M1489.37,632.75c39.14,0.14,73.33,7.6,105.09,25,13.41,7.33,21.33,19.9,29,32.17,7.06,11.31,11.76,24.07,18.15,35.83,3.33,6.13.38,9.94-4.1,11.7-57.12,22.45-115.27,37.09-176.92,20.53-19.23-5.17-36.92-13.89-53.33-25.13-7-4.81-11.83-11.64-15.64-19.07-7.91-15.39-15.6-30.89-23.24-46.41-3.25-6.6,1.6-9.57,6.38-11.33a396.13,396.13,0,0,1,72.61-19.44A336,336,0,0,1,1489.37,632.75Z" transform="translate(0 -0.03)"/><path class="cls-2" d="M1127.76,839.73c0.16-19.89,6.39-34.32,15.25-47.75,15.26-23.15,36.05-40.85,57.18-58.35,15.12-12.53,32.85-19.89,50.23-28.08,11.47-5.4,23-10.73,34.45-16.09,3.24-1.51,6.73-2.93,8.76,1.41,8.75,18.76,20.18,36.36,25.92,56.39,6.66,23.24,1.38,44.91-10.94,65.13-15,24.69-36.42,43.21-59.6,59.74-24.64,17.56-52.71,28.28-80.73,38.92-5.23,2-10.19,1.06-13.15-5.26-6.71-14.35-14-28.44-20.93-42.69C1130.1,854.63,1127.54,845.83,1127.76,839.73Z" transform="translate(0 -0.03)"/><path class="cls-3" d="M1663.19,61.57a4.34,4.34,0,0,1-5-2.42c0.26-.23.53-0.47,0.78-0.72a5.46,5.46,0,0,1,4.15,3.19Z" transform="translate(0 -0.03)"/><path class="cls-3" d="M1663.13,61.63l1,0.65c-1,.71-1,0-1-0.7v0Z" transform="translate(0 -0.03)"/><path class="cls-3" d="M82.41,1687.73c1.48-.38,2,0.16,1.53,1.62A1.26,1.26,0,0,1,82.41,1687.73Z" transform="translate(0 -0.03)"/><path class="cls-3" d="M83.8,1689.23c1.54-.41,2,0.22,1.57,1.65A1.38,1.38,0,0,1,83.8,1689.23Z" transform="translate(0 -0.03)"/><path class="cls-3" d="M85.23,1690.71l1.61,0.54C85.92,1692.18,85.26,1692.4,85.23,1690.71Z" transform="translate(0 -0.03)"/><path class="cls-3" d="M1586.65,1437.57h-52.24c-35.72,0-70.72-3.65-103-20.81-10.44-5.56-19.53-12.85-28-21.06-4.71-4.57-10.23-8.29-15-12.77-21-19.65-33.33-44.75-40.45-71.84-12-45.55-9.7-90.26,12.58-133.06,27.53-52.89,69-89.58,126-106.7,40.7-12.23,83.15-13,122.17,4.39,59.16,26.37,100.26,69.74,109.82,137,1.37,9.63,1.49,19.5,1.53,29.26,0.16,39.1-.3,78.21.15,117.32,0.71,61.77-25,110.7-71.2,150.17-23.78,20.33-49.91,35.68-81.23,41.14a262.45,262.45,0,0,1-38.62,3.57q-131.92,3.32-263.83,6.47c-5,.12-6.17,1.86-7.32,6.48-18,71.82-61.76,118-134.82,134.73-9.78,2.24-19.82,2.71-29.86,2.7-32.75,0-65.5-.15-98.25.21-7,.08-9-2.17-8.19-8.91,3.81-32.8,15.81-59.93,49.13-72.72,10.41-4,21.3-5,32.35-5.21,14.86-.29,29.83.85,44.44-3.23,25.64-7.16,41.59-24.87,53.1-47.89-3-1.62-5.7-.8-8.28-0.81-26.39,0-52.75,1.14-79.16.63-77.62-1.5-135.74-60.32-150.83-122.79-22-91.28,17.95-171,95.45-212.14,62.52-33.17,132.34-26.93,189.83,28.06,35.82,34.26,49,76.24,50.56,123.77,0.83,25.64,2,51.28,2.74,76.93,0.14,5.12,1,7,6.91,6.79,83-2.79,166.11-5.2,249.16-7.86,16.69-.53,33.07-3.1,48.36-10.38C1576.8,1446.05,1582.45,1442.4,1586.65,1437.57Zm-24.73-93.08c20.3-.92,36.64-1.93,53-2.25,5.66-.11,6.83-2.05,6.76-7.31-0.28-21.74,0-43.48-.15-65.22-0.08-16.4-1.09-32.76-5.39-48.66-9.09-33.6-29.11-56-64.61-62.53-20.91-3.83-41.89-4.32-60.5,6.82-35.86,21.47-55.67,51.87-56.3,95.79-0.58,40.3,37.56,80.23,74,83.66C1527.92,1346.58,1546.82,1344.57,1561.92,1344.49Zm-444.17,126c16.36,0,32.72-.14,49.07.08,5.15,0.07,7.16-1.17,7.05-6.93-0.39-21.49-.16-43-0.16-64.49,0-14.22-1.15-28.3-5.6-41.92-17.57-53.89-73-69.93-114.95-47.19-15.9,8.61-26.3,23.06-35.07,38.53-18.86,33.3-15.5,74.25,8.54,103.42a51.72,51.72,0,0,0,32.61,19c19.47,3.36,39,1,58.48-.49h0Z" transform="translate(0 -0.03)"/><path class="cls-3" d="M263.92,1285.38c0-16.79.18-32.41-.09-48-0.12-6.73,1.57-10.08,9.26-10.34,16.35-.56,32.67-2.14,49-3.35,8.76-.65,9.65,0,9.65,9q0.06,61.59,0,123.17v140.88c17.63-.64,34.87-1.34,52.12-1.89,46.9-1.49,93.79-3,140.7-4.24,5.2-.14,7.16-1.1,6.87-6.82-0.95-18.72,1.43-37.59-3.21-56.16-6.67-26.71-23.82-43.84-49-53.11-8.89-3.28-18.78-2.68-28.29-2.61-6.84,0-13.67.68-20.5,0.93-16.94.63-30-6.5-40.57-19.52-12.6-15.54-15-34-16.29-52.9-0.17-2.45.7-3.76,3.16-3.83,35.38-1.06,70.68-7.32,106.09-3.54,41.32,4.41,72.08,26.55,94.89,60.57,18.87,28.14,29.09,58.86,28.12,93-0.34,12,.2,24-0.18,35.92-0.15,4.76,1.35,5.62,5.75,5.38,11.71-.65,23.45-0.6,35.17-1.19,5.11-.26,7.07,1.58,7,6.65q-0.17,36.29,0,72.58c0,5-1.75,7-6.88,6.95-10.75-.06-21.54,1-32.24.39-7.87-.47-9.37,2.43-8.86,9.42,0.6,8.27,0,16.61.2,24.92,0.13,4.84-1.34,7.07-6.64,7.09q-30.42.07-60.84,0.81c-5.63.14-7.28-2.24-7.15-7.42,0.22-8.79-.32-17.62.2-26.38,0.34-5.65-1.49-6.8-6.9-6.67-60.59,1.35-121.19,3.15-181.79,3.35-48.12.16-96.21,1.68-144.32,2.15a171.56,171.56,0,0,1-34.21-3.36c-32.45-6.25-53.63-28-71.79-53.05-25.42-35-31.8-75-26.26-117.05,6.1-46.29,27.47-84.51,64.14-113.68a116.45,116.45,0,0,1,128.67-10.7C260.22,1283.47,261.49,1284.11,263.92,1285.38Zm-1.69,167c0-12.7.13-25.39-.88-38.07-1.8-22.48-11.18-41.54-27.69-56.37-20.83-18.72-42.63-17-63.46-3.88-38.18,24-45.57,62.27-34.42,102.89,8,29.09,28.36,43.4,55.59,42.82,21.73-.46,43.44-1.49,65.17-2,4.39-.1,5.9-1.3,5.8-5.84-0.31-13.13-.13-26.3-0.14-39.5Z" transform="translate(0 -0.03)"/><path class="cls-3" d="M856.12,1422.63c0,41.54-1.63,83.17.38,124.62,3,61.52-60.33,136.39-110.66,151.72-12,3.66-24.1,6-36.67,6-31.29,0-62.57-.06-93.85.27-6.39.07-8.44-1.82-8.42-8.31,0.08-32.68,14.69-55.8,44.25-69.74,11.13-5.25,23.05-3.11,34.59-4.52a39.18,39.18,0,0,1,9.52-.13c39.32,4.91,73.87-35,77.82-69.07a176.4,176.4,0,0,0,1.35-20.44c0-59.39.27-118.79-.12-178.18-0.24-35.77,16.13-60.89,47-77.34,9.43-5,20.29-5,30.43-7.57,2.54-.64,3.65.68,3.69,3.08V1422.6h0.65Z" transform="translate(0 -0.03)"/><path class="cls-3" d="M1531.17,1010.8c-4-34.78,11-61,37.16-82.16,15.57-12.59,34.09-17.34,53.36-20.09,3.56-.51,6,1,6,4.59-0.55,21.13,2.68,42.58-4.73,63.17-9.44,26.2-29.72,41.44-53.72,52.95-10.55,5.06-22.11,5.74-33.25,8.29-3.67.84-4.86-.51-4.81-4.05C1531.25,1025.94,1531.17,1018.37,1531.17,1010.8Z" transform="translate(0 -0.03)"/><path class="cls-3" d="M463.23,1631.75c0-5.86.19-11.72-.06-17.57-0.2-4.94,1.4-6.77,6.72-6.8,32.3-.16,61,26.43,65.3,58.88,1.83,13.86,1.06,27.78,1.26,41.68,0,3.24-.89,4.79-4.66,4.66-23.8-.82-42.61-10.89-56.7-30a60.5,60.5,0,0,1-11.8-34.78c-0.18-5.36,0-10.74,0-16.11h0Z" transform="translate(0 -0.03)"/><path class="cls-3" d="M212.67,1196.1c-1.78-28,8.47-52.56,34.16-69.88A70.6,70.6,0,0,1,276.64,1115c3-.44,5.06-0.51,5.11,3.64,0.22,19.55-.26,39-6.22,57.88-7.78,24.61-31.32,43-56.76,45-4.54.35-6.28-1.12-6.14-5.59C212.81,1210.15,212.67,1204.29,212.67,1196.1Z" transform="translate(0 -0.03)"/><path class="cls-3" d="M168.51,1201.46c0,5.85-.13,11.7,0,17.54,0.13,4.58-1.69,6.45-6.4,6.75-24.54,1.53-43.85-10.08-53.5-32.73-4.71-11-7.93-22.43-7.21-34.7a190.86,190.86,0,0,0,0-21.95c-0.3-5.29,1.94-6.73,6.76-6.89,19.57-.64,35.06,6.69,46.29,22.85C164.74,1167.13,168.76,1183.63,168.51,1201.46Z" transform="translate(0 -0.03)"/><path class="cls-2" d="M1561.92,1344.49c-15.07.08-34,2.09-53.13,0.3-36.48-3.43-74.62-43.37-74-83.66,0.63-43.91,20.44-74.32,56.3-95.79,18.61-11.14,39.59-10.65,60.5-6.82,35.49,6.5,55.52,28.93,64.61,62.53,4.3,15.9,5.31,32.26,5.39,48.66,0.11,21.74-.14,43.49.15,65.22,0.07,5.26-1.11,7.2-6.76,7.31C1598.53,1342.55,1582.19,1343.56,1561.92,1344.49Z" transform="translate(0 -0.03)"/><path class="cls-2" d="M1117.72,1470.5c-19.5,1.44-39,3.84-58.5.45a51.72,51.72,0,0,1-32.61-19c-24-29.17-27.4-70.12-8.54-103.42,8.76-15.47,19.17-29.92,35.07-38.53,42-22.73,97.37-6.7,114.95,47.19,4.44,13.63,5.6,27.7,5.6,41.92,0,21.5-.23,43,0.16,64.49,0.1,5.76-1.9,7-7.05,6.93C1150.44,1470.36,1134.08,1470.5,1117.72,1470.5Z" transform="translate(0 -0.03)"/><path class="cls-2" d="M262.21,1452.43c0,13.19-.18,26.38.11,39.56,0.1,4.54-1.41,5.74-5.8,5.84-21.73.5-43.44,1.52-65.17,2-27.22.58-47.6-13.73-55.59-42.82-11.15-40.62-3.76-78.89,34.42-102.89,20.82-13.09,42.63-14.84,63.46,3.88,16.51,14.84,25.89,33.9,27.69,56.37C262.33,1427,262.2,1439.73,262.21,1452.43Z" transform="translate(0 -0.03)"/></svg>